<?xml version="1.0" encoding="UTF-8" standalone="no"?>
<!DOCTYPE svg PUBLIC "-//W3C//DTD SVG 1.1//EN"
 "http://www.w3.org/Graphics/SVG/1.1/DTD/svg11.dtd">
<!-- Generated by graphviz version 2.40.1 (20161225.0304)
 -->
<!-- Title: Lung Pages: 1 -->
<svg width="505pt" height="476pt"
 viewBox="0.00 0.00 505.14 476.00" xmlns="http://www.w3.org/2000/svg" xmlns:xlink="http://www.w3.org/1999/xlink">
<g id="graph0" class="graph" transform="scale(1 1) rotate(0) translate(4 472)">
<title>Lung</title>
<polygon fill="#ffffff" stroke="transparent" points="-4,4 -4,-472 501.139,-472 501.139,4 -4,4"/>
<!-- CALL_Recal -->
<g id="node1" class="node">
<title>CALL_Recal</title>
<ellipse fill="none" stroke="#000000" cx="84.545" cy="-234" rx="46.2923" ry="18"/>
<text text-anchor="middle" x="84.545" y="-230.3" font-family="Times,serif" font-size="14.00" fill="#000000">call Recal</text>
</g>
<!-- CALL_ApplyBQSR -->
<g id="node2" class="node">
<title>CALL_ApplyBQSR</title>
<ellipse fill="none" stroke="#000000" cx="121.545" cy="-162" rx="70.6878" ry="18"/>
<text text-anchor="middle" x="121.545" y="-158.3" font-family="Times,serif" font-size="14.00" fill="#000000">call ApplyBQSR</text>
</g>
<!-- CALL_Recal&#45;&gt;CALL_ApplyBQSR -->
<g id="edge1" class="edge">
<title>CALL_Recal&#45;&gt;CALL_ApplyBQSR</title>
<path fill="none" stroke="#000000" d="M93.6911,-216.2022C97.8841,-208.0428 102.9471,-198.1904 107.6002,-189.1358"/>
<polygon fill="#000000" stroke="#000000" points="110.7894,-190.5872 112.2471,-180.0931 104.5634,-187.3877 110.7894,-190.5872"/>
</g>
<!-- CALL_BamStat -->
<g id="node11" class="node">
<title>CALL_BamStat</title>
<ellipse fill="none" stroke="#000000" cx="56.545" cy="-90" rx="56.59" ry="18"/>
<text text-anchor="middle" x="56.545" y="-86.3" font-family="Times,serif" font-size="14.00" fill="#000000">call BamStat</text>
</g>
<!-- CALL_ApplyBQSR&#45;&gt;CALL_BamStat -->
<g id="edge11" class="edge">
<title>CALL_ApplyBQSR&#45;&gt;CALL_BamStat</title>
<path fill="none" stroke="#000000" d="M105.4776,-144.2022C97.4682,-135.3303 87.6519,-124.4569 78.9192,-114.7837"/>
<polygon fill="#000000" stroke="#000000" points="81.5023,-112.4219 72.2033,-107.3446 76.3064,-117.1127 81.5023,-112.4219"/>
</g>
<!-- CALL_Mutect2 -->
<g id="node12" class="node">
<title>CALL_Mutect2</title>
<ellipse fill="none" stroke="#000000" cx="186.545" cy="-90" rx="55.7903" ry="18"/>
<text text-anchor="middle" x="186.545" y="-86.3" font-family="Times,serif" font-size="14.00" fill="#000000">call Mutect2</text>
</g>
<!-- CALL_ApplyBQSR&#45;&gt;CALL_Mutect2 -->
<g id="edge12" class="edge">
<title>CALL_ApplyBQSR&#45;&gt;CALL_Mutect2</title>
<path fill="none" stroke="#000000" d="M137.6124,-144.2022C145.6218,-135.3303 155.4381,-124.4569 164.1708,-114.7837"/>
<polygon fill="#000000" stroke="#000000" points="166.7836,-117.1127 170.8867,-107.3446 161.5877,-112.4219 166.7836,-117.1127"/>
</g>
<!-- CALL_Mapping -->
<g id="node3" class="node">
<title>CALL_Mapping</title>
<ellipse fill="none" stroke="#000000" cx="270.545" cy="-378" rx="57.6901" ry="18"/>
<text text-anchor="middle" x="270.545" y="-374.3" font-family="Times,serif" font-size="14.00" fill="#000000">call Mapping</text>
</g>
<!-- CALL_MarkDup -->
<g id="node4" class="node">
<title>CALL_MarkDup</title>
<ellipse fill="none" stroke="#000000" cx="142.545" cy="-306" rx="60.3893" ry="18"/>
<text text-anchor="middle" x="142.545" y="-302.3" font-family="Times,serif" font-size="14.00" fill="#000000">call MarkDup</text>
</g>
<!-- CALL_Mapping&#45;&gt;CALL_MarkDup -->
<g id="edge2" class="edge">
<title>CALL_Mapping&#45;&gt;CALL_MarkDup</title>
<path fill="none" stroke="#000000" d="M242.4548,-362.1993C224.0753,-351.8608 199.8539,-338.2362 179.863,-326.9914"/>
<polygon fill="#000000" stroke="#000000" points="181.4436,-323.8648 171.0119,-322.0127 178.0118,-329.9658 181.4436,-323.8648"/>
</g>
<!-- CALL_LumpyFilter -->
<g id="node7" class="node">
<title>CALL_LumpyFilter</title>
<ellipse fill="none" stroke="#000000" cx="273.545" cy="-234" rx="70.6878" ry="18"/>
<text text-anchor="middle" x="273.545" y="-230.3" font-family="Times,serif" font-size="14.00" fill="#000000">call LumpyFilter</text>
</g>
<!-- CALL_Mapping&#45;&gt;CALL_LumpyFilter -->
<g id="edge4" class="edge">
<title>CALL_Mapping&#45;&gt;CALL_LumpyFilter</title>
<path fill="none" stroke="#000000" d="M261.6068,-360.0042C257.0057,-349.733 251.8819,-336.457 249.545,-324 246.5948,-308.2743 246.2235,-303.6514 249.545,-288 251.4947,-278.8126 255.1191,-269.2905 258.9711,-260.848"/>
<polygon fill="#000000" stroke="#000000" points="262.1205,-262.3748 263.3397,-251.8503 255.8235,-259.3174 262.1205,-262.3748"/>
</g>
<!-- CALL_Manta -->
<g id="node8" class="node">
<title>CALL_Manta</title>
<ellipse fill="none" stroke="#000000" cx="429.545" cy="-306" rx="48.9926" ry="18"/>
<text text-anchor="middle" x="429.545" y="-302.3" font-family="Times,serif" font-size="14.00" fill="#000000">call Manta</text>
</g>
<!-- CALL_Mapping&#45;&gt;CALL_Manta -->
<g id="edge8" class="edge">
<title>CALL_Mapping&#45;&gt;CALL_Manta</title>
<path fill="none" stroke="#000000" d="M303.4899,-363.0816C328.3606,-351.8193 362.6171,-336.307 389.1421,-324.2957"/>
<polygon fill="#000000" stroke="#000000" points="390.8671,-327.3567 398.5329,-320.0432 387.9795,-320.98 390.8671,-327.3567"/>
</g>
<!-- CALL_Lumpy -->
<g id="node10" class="node">
<title>CALL_Lumpy</title>
<ellipse fill="none" stroke="#000000" cx="310.545" cy="-306" rx="51.9908" ry="18"/>
<text text-anchor="middle" x="310.545" y="-302.3" font-family="Times,serif" font-size="14.00" fill="#000000">call Lumpy</text>
</g>
<!-- CALL_Mapping&#45;&gt;CALL_Lumpy -->
<g id="edge15" class="edge">
<title>CALL_Mapping&#45;&gt;CALL_Lumpy</title>
<path fill="none" stroke="#000000" d="M280.4326,-360.2022C285.0481,-351.8944 290.6385,-341.8316 295.7435,-332.6427"/>
<polygon fill="#000000" stroke="#000000" points="298.8355,-334.2839 300.6325,-323.8425 292.7164,-330.8844 298.8355,-334.2839"/>
</g>
<!-- CALL_MarkDup&#45;&gt;CALL_Recal -->
<g id="edge5" class="edge">
<title>CALL_MarkDup&#45;&gt;CALL_Recal</title>
<path fill="none" stroke="#000000" d="M128.2079,-288.2022C121.2026,-279.506 112.6482,-268.8867 104.9737,-259.3598"/>
<polygon fill="#000000" stroke="#000000" points="107.516,-256.9365 98.517,-251.3446 102.0647,-261.3278 107.516,-256.9365"/>
</g>
<!-- CALL_MarkDup&#45;&gt;CALL_ApplyBQSR -->
<g id="edge6" class="edge">
<title>CALL_MarkDup&#45;&gt;CALL_ApplyBQSR</title>
<path fill="none" stroke="#000000" d="M143.4594,-287.9103C144.03,-269.6218 143.9626,-240.6207 139.545,-216 137.9816,-207.2869 135.3084,-198.0597 132.4935,-189.7451"/>
<polygon fill="#000000" stroke="#000000" points="135.7238,-188.384 129.0547,-180.1515 129.1343,-190.746 135.7238,-188.384"/>
</g>
<!-- CALL_QC -->
<g id="node5" class="node">
<title>CALL_QC</title>
<ellipse fill="none" stroke="#000000" cx="337.545" cy="-450" rx="38.1938" ry="18"/>
<text text-anchor="middle" x="337.545" y="-446.3" font-family="Times,serif" font-size="14.00" fill="#000000">call QC</text>
</g>
<!-- CALL_QC&#45;&gt;CALL_Mapping -->
<g id="edge7" class="edge">
<title>CALL_QC&#45;&gt;CALL_Mapping</title>
<path fill="none" stroke="#000000" d="M322.0054,-433.3008C313.6265,-424.2965 303.1193,-413.0052 293.7874,-402.9769"/>
<polygon fill="#000000" stroke="#000000" points="296.3096,-400.5496 286.935,-395.6132 291.1851,-405.3182 296.3096,-400.5496"/>
</g>
<!-- CALL_FastqStat -->
<g id="node6" class="node">
<title>CALL_FastqStat</title>
<ellipse fill="none" stroke="#000000" cx="404.545" cy="-378" rx="58.4896" ry="18"/>
<text text-anchor="middle" x="404.545" y="-374.3" font-family="Times,serif" font-size="14.00" fill="#000000">call FastqStat</text>
</g>
<!-- CALL_QC&#45;&gt;CALL_FastqStat -->
<g id="edge3" class="edge">
<title>CALL_QC&#45;&gt;CALL_FastqStat</title>
<path fill="none" stroke="#000000" d="M353.0845,-433.3008C361.4635,-424.2965 371.9707,-413.0052 381.3026,-402.9769"/>
<polygon fill="#000000" stroke="#000000" points="383.9049,-405.3182 388.1549,-395.6132 378.7804,-400.5496 383.9049,-405.3182"/>
</g>
<!-- CALL_FusionAnnotation -->
<g id="node9" class="node">
<title>CALL_FusionAnnotation</title>
<ellipse fill="none" stroke="#000000" cx="356.545" cy="-162" rx="89.0842" ry="18"/>
<text text-anchor="middle" x="356.545" y="-158.3" font-family="Times,serif" font-size="14.00" fill="#000000">call FusionAnnotation</text>
</g>
<!-- CALL_LumpyFilter&#45;&gt;CALL_FusionAnnotation -->
<g id="edge9" class="edge">
<title>CALL_LumpyFilter&#45;&gt;CALL_FusionAnnotation</title>
<path fill="none" stroke="#000000" d="M293.637,-216.5708C304.0839,-207.5084 317.0232,-196.2839 328.4454,-186.3755"/>
<polygon fill="#000000" stroke="#000000" points="330.801,-188.9656 336.0614,-179.7689 326.214,-183.6778 330.801,-188.9656"/>
</g>
<!-- CALL_MantaFilter -->
<g id="node13" class="node">
<title>CALL_MantaFilter</title>
<ellipse fill="none" stroke="#000000" cx="429.545" cy="-234" rx="67.6881" ry="18"/>
<text text-anchor="middle" x="429.545" y="-230.3" font-family="Times,serif" font-size="14.00" fill="#000000">call MantaFilter</text>
</g>
<!-- CALL_Manta&#45;&gt;CALL_MantaFilter -->
<g id="edge13" class="edge">
<title>CALL_Manta&#45;&gt;CALL_MantaFilter</title>
<path fill="none" stroke="#000000" d="M429.545,-287.8314C429.545,-280.131 429.545,-270.9743 429.545,-262.4166"/>
<polygon fill="#000000" stroke="#000000" points="433.0451,-262.4132 429.545,-252.4133 426.0451,-262.4133 433.0451,-262.4132"/>
</g>
<!-- CALL_Lumpy&#45;&gt;CALL_LumpyFilter -->
<g id="edge10" class="edge">
<title>CALL_Lumpy&#45;&gt;CALL_LumpyFilter</title>
<path fill="none" stroke="#000000" d="M301.3989,-288.2022C297.2059,-280.0428 292.1428,-270.1904 287.4898,-261.1358"/>
<polygon fill="#000000" stroke="#000000" points="290.5266,-259.3877 282.8428,-252.0931 284.3006,-262.5872 290.5266,-259.3877"/>
</g>
<!-- CALL_VcfFilter -->
<g id="node14" class="node">
<title>CALL_VcfFilter</title>
<ellipse fill="none" stroke="#000000" cx="186.545" cy="-18" rx="57.6901" ry="18"/>
<text text-anchor="middle" x="186.545" y="-14.3" font-family="Times,serif" font-size="14.00" fill="#000000">call VcfFilter</text>
</g>
<!-- CALL_Mutect2&#45;&gt;CALL_VcfFilter -->
<g id="edge16" class="edge">
<title>CALL_Mutect2&#45;&gt;CALL_VcfFilter</title>
<path fill="none" stroke="#000000" d="M186.545,-71.8314C186.545,-64.131 186.545,-54.9743 186.545,-46.4166"/>
<polygon fill="#000000" stroke="#000000" points="190.0451,-46.4132 186.545,-36.4133 183.0451,-46.4133 190.0451,-46.4132"/>
</g>
<!-- CALL_MantaFilter&#45;&gt;CALL_FusionAnnotation -->
<g id="edge14" class="edge">
<title>CALL_MantaFilter&#45;&gt;CALL_FusionAnnotation</title>
<path fill="none" stroke="#000000" d="M411.8737,-216.5708C402.8622,-207.6827 391.742,-196.7148 381.8401,-186.9486"/>
<polygon fill="#000000" stroke="#000000" points="384.1381,-184.2992 374.5607,-179.7689 379.2226,-189.2829 384.1381,-184.2992"/>
</g>
</g>
</svg>
