<?xml version="1.0" encoding="UTF-8" standalone="no"?>
<!DOCTYPE svg PUBLIC "-//W3C//DTD SVG 1.1//EN"
 "http://www.w3.org/Graphics/SVG/1.1/DTD/svg11.dtd">
<!-- Generated by graphviz version 2.40.1 (20161225.0304)
 -->
<!-- Title: Lung Pages: 1 -->
<svg width="321pt" height="476pt"
 viewBox="0.00 0.00 321.39 476.00" xmlns="http://www.w3.org/2000/svg" xmlns:xlink="http://www.w3.org/1999/xlink">
<g id="graph0" class="graph" transform="scale(1 1) rotate(0) translate(4 472)">
<title>Lung</title>
<polygon fill="#ffffff" stroke="transparent" points="-4,4 -4,-472 317.3899,-472 317.3899,4 -4,4"/>
<!-- CALL_Recal -->
<g id="node1" class="node">
<title>CALL_Recal</title>
<ellipse fill="none" stroke="#000000" cx="83.895" cy="-234" rx="46.2923" ry="18"/>
<text text-anchor="middle" x="83.895" y="-230.3" font-family="Times,serif" font-size="14.00" fill="#000000">call Recal</text>
</g>
<!-- CALL_ApplyBQSR -->
<g id="node2" class="node">
<title>CALL_ApplyBQSR</title>
<ellipse fill="none" stroke="#000000" cx="120.895" cy="-162" rx="70.6878" ry="18"/>
<text text-anchor="middle" x="120.895" y="-158.3" font-family="Times,serif" font-size="14.00" fill="#000000">call ApplyBQSR</text>
</g>
<!-- CALL_Recal&#45;&gt;CALL_ApplyBQSR -->
<g id="edge1" class="edge">
<title>CALL_Recal&#45;&gt;CALL_ApplyBQSR</title>
<path fill="none" stroke="#000000" d="M93.0411,-216.2022C97.2342,-208.0428 102.2972,-198.1904 106.9503,-189.1358"/>
<polygon fill="#000000" stroke="#000000" points="110.1395,-190.5872 111.5972,-180.0931 103.9134,-187.3877 110.1395,-190.5872"/>
</g>
<!-- CALL_Mutect2 -->
<g id="node7" class="node">
<title>CALL_Mutect2</title>
<ellipse fill="none" stroke="#000000" cx="55.895" cy="-90" rx="55.7903" ry="18"/>
<text text-anchor="middle" x="55.895" y="-86.3" font-family="Times,serif" font-size="14.00" fill="#000000">call Mutect2</text>
</g>
<!-- CALL_ApplyBQSR&#45;&gt;CALL_Mutect2 -->
<g id="edge9" class="edge">
<title>CALL_ApplyBQSR&#45;&gt;CALL_Mutect2</title>
<path fill="none" stroke="#000000" d="M104.8276,-144.2022C96.8182,-135.3303 87.0019,-124.4569 78.2693,-114.7837"/>
<polygon fill="#000000" stroke="#000000" points="80.8524,-112.4219 71.5533,-107.3446 75.6565,-117.1127 80.8524,-112.4219"/>
</g>
<!-- CALL_BamStat -->
<g id="node9" class="node">
<title>CALL_BamStat</title>
<ellipse fill="none" stroke="#000000" cx="185.895" cy="-90" rx="56.59" ry="18"/>
<text text-anchor="middle" x="185.895" y="-86.3" font-family="Times,serif" font-size="14.00" fill="#000000">call BamStat</text>
</g>
<!-- CALL_ApplyBQSR&#45;&gt;CALL_BamStat -->
<g id="edge8" class="edge">
<title>CALL_ApplyBQSR&#45;&gt;CALL_BamStat</title>
<path fill="none" stroke="#000000" d="M136.9625,-144.2022C144.9718,-135.3303 154.7881,-124.4569 163.5208,-114.7837"/>
<polygon fill="#000000" stroke="#000000" points="166.1336,-117.1127 170.2367,-107.3446 160.9377,-112.4219 166.1336,-117.1127"/>
</g>
<!-- CALL_Mapping -->
<g id="node3" class="node">
<title>CALL_Mapping</title>
<ellipse fill="none" stroke="#000000" cx="120.895" cy="-378" rx="57.6901" ry="18"/>
<text text-anchor="middle" x="120.895" y="-374.3" font-family="Times,serif" font-size="14.00" fill="#000000">call Mapping</text>
</g>
<!-- CALL_MarkDup -->
<g id="node4" class="node">
<title>CALL_MarkDup</title>
<ellipse fill="none" stroke="#000000" cx="120.895" cy="-306" rx="60.3893" ry="18"/>
<text text-anchor="middle" x="120.895" y="-302.3" font-family="Times,serif" font-size="14.00" fill="#000000">call MarkDup</text>
</g>
<!-- CALL_Mapping&#45;&gt;CALL_MarkDup -->
<g id="edge2" class="edge">
<title>CALL_Mapping&#45;&gt;CALL_MarkDup</title>
<path fill="none" stroke="#000000" d="M120.895,-359.8314C120.895,-352.131 120.895,-342.9743 120.895,-334.4166"/>
<polygon fill="#000000" stroke="#000000" points="124.3951,-334.4132 120.895,-324.4133 117.3951,-334.4133 124.3951,-334.4132"/>
</g>
<!-- CALL_MarkDup&#45;&gt;CALL_Recal -->
<g id="edge5" class="edge">
<title>CALL_MarkDup&#45;&gt;CALL_Recal</title>
<path fill="none" stroke="#000000" d="M111.749,-288.2022C107.5242,-279.981 102.4161,-270.041 97.7341,-260.9301"/>
<polygon fill="#000000" stroke="#000000" points="100.7479,-259.1371 93.0641,-251.8425 94.5219,-262.3366 100.7479,-259.1371"/>
</g>
<!-- CALL_MarkDup&#45;&gt;CALL_ApplyBQSR -->
<g id="edge6" class="edge">
<title>CALL_MarkDup&#45;&gt;CALL_ApplyBQSR</title>
<path fill="none" stroke="#000000" d="M128.563,-287.8756C132.5089,-277.5642 136.9005,-264.2907 138.895,-252 141.458,-236.2066 141.458,-231.7934 138.895,-216 137.4771,-207.2621 134.8475,-198.0275 132.0279,-189.7136"/>
<polygon fill="#000000" stroke="#000000" points="135.2531,-188.3399 128.563,-180.1244 128.6697,-190.7187 135.2531,-188.3399"/>
</g>
<!-- CALL_QC -->
<g id="node5" class="node">
<title>CALL_QC</title>
<ellipse fill="none" stroke="#000000" cx="187.895" cy="-450" rx="38.1938" ry="18"/>
<text text-anchor="middle" x="187.895" y="-446.3" font-family="Times,serif" font-size="14.00" fill="#000000">call QC</text>
</g>
<!-- CALL_QC&#45;&gt;CALL_Mapping -->
<g id="edge7" class="edge">
<title>CALL_QC&#45;&gt;CALL_Mapping</title>
<path fill="none" stroke="#000000" d="M172.3555,-433.3008C163.9765,-424.2965 153.4693,-413.0052 144.1374,-402.9769"/>
<polygon fill="#000000" stroke="#000000" points="146.6597,-400.5496 137.2851,-395.6132 141.5352,-405.3182 146.6597,-400.5496"/>
</g>
<!-- CALL_FastqStat -->
<g id="node6" class="node">
<title>CALL_FastqStat</title>
<ellipse fill="none" stroke="#000000" cx="254.895" cy="-378" rx="58.4896" ry="18"/>
<text text-anchor="middle" x="254.895" y="-374.3" font-family="Times,serif" font-size="14.00" fill="#000000">call FastqStat</text>
</g>
<!-- CALL_QC&#45;&gt;CALL_FastqStat -->
<g id="edge3" class="edge">
<title>CALL_QC&#45;&gt;CALL_FastqStat</title>
<path fill="none" stroke="#000000" d="M203.4346,-433.3008C211.8135,-424.2965 222.3208,-413.0052 231.6527,-402.9769"/>
<polygon fill="#000000" stroke="#000000" points="234.2549,-405.3182 238.505,-395.6132 229.1304,-400.5496 234.2549,-405.3182"/>
</g>
<!-- CALL_vcfFilter -->
<g id="node8" class="node">
<title>CALL_vcfFilter</title>
<ellipse fill="none" stroke="#000000" cx="55.895" cy="-18" rx="55.7903" ry="18"/>
<text text-anchor="middle" x="55.895" y="-14.3" font-family="Times,serif" font-size="14.00" fill="#000000">call vcfFilter</text>
</g>
<!-- CALL_Mutect2&#45;&gt;CALL_vcfFilter -->
<g id="edge4" class="edge">
<title>CALL_Mutect2&#45;&gt;CALL_vcfFilter</title>
<path fill="none" stroke="#000000" d="M55.895,-71.8314C55.895,-64.131 55.895,-54.9743 55.895,-46.4166"/>
<polygon fill="#000000" stroke="#000000" points="59.3951,-46.4132 55.895,-36.4133 52.3951,-46.4133 59.3951,-46.4132"/>
</g>
</g>
</svg>
